<svg id="Layer_8" data-name="Layer 8" xmlns="http://www.w3.org/2000/svg" viewBox="0 0 637.04 387.51"><defs><style>.cls-1{fill:#006;}.cls-2{fill:#f26722;}.cls-3{fill:none;}.cls-4{fill:#fff;}</style></defs><path class="cls-1" d="M62.93,359a17.57,17.57,0,0,1-6.45-3.55l2.07-4.36a17.11,17.11,0,0,0,5.72,3.27,21,21,0,0,0,7.18,1.26q4.86,0,7.26-1.65a5.07,5.07,0,0,0,2.41-4.39,4.32,4.32,0,0,0-1.32-3.27,8.7,8.7,0,0,0-3.24-1.92c-1.28-.45-3.1-1-5.44-1.51A57.84,57.84,0,0,1,64,340.72a11.8,11.8,0,0,1-4.63-3.27,8.71,8.71,0,0,1-1.93-5.95,10,10,0,0,1,1.65-5.64,11.31,11.31,0,0,1,5-4,20.35,20.35,0,0,1,8.32-1.51,26.23,26.23,0,0,1,6.82.9A18,18,0,0,1,85,323.79l-1.84,4.47a20,20,0,0,0-5.25-2.38,19.67,19.67,0,0,0-5.48-.81c-3.16,0-5.54.58-7.12,1.73a5.31,5.31,0,0,0-2.38,4.47,4.28,4.28,0,0,0,1.34,3.27,9.45,9.45,0,0,0,3.33,2A53,53,0,0,0,73,338a54.3,54.3,0,0,1,7.09,2.12,11.94,11.94,0,0,1,4.61,3.24,8.51,8.51,0,0,1,1.93,5.87,10,10,0,0,1-1.67,5.61,11.18,11.18,0,0,1-5.09,4,20.94,20.94,0,0,1-8.38,1.49A26.86,26.86,0,0,1,62.93,359Z" transform="translate(-56.48 -46.25)"/><path class="cls-1" d="M88.49,343.9l14.8-11.28,2.41,3.24L90.89,347.08Zm5.92-25.48h5.37v41.46H94.41Z" transform="translate(-56.48 -46.25)"/><path class="cls-1" d="M130.64,333q3.27,3,3.27,9v17.88h-5.08V356a8.44,8.44,0,0,1-3.83,3.15,14.55,14.55,0,0,1-5.9,1.09,12.36,12.36,0,0,1-8-2.4,7.69,7.69,0,0,1-3-6.31,7.78,7.78,0,0,1,2.84-6.29q2.85-2.37,9-2.37h8.5v-1.06a6.82,6.82,0,0,0-2-5.31q-2-1.85-5.92-1.84a15.89,15.89,0,0,0-5.14.86,13.25,13.25,0,0,0-4.24,2.32l-2.24-4a16.15,16.15,0,0,1,5.48-2.82,22.92,22.92,0,0,1,6.76-1Q127.36,330,130.64,333Zm-5.33,21.7a7.84,7.84,0,0,0,3.24-3.88v-4.14h-8.27q-6.82,0-6.82,4.58a4.15,4.15,0,0,0,1.73,3.52,7.92,7.92,0,0,0,4.81,1.29A10,10,0,0,0,125.31,354.71Z" transform="translate(-56.48 -46.25)"/><path class="cls-1" d="M188.1,330.27,177,359.88H171.9l-8.55-22.46-8.66,22.46h-5.14l-11-29.61h5.08l8.6,23.57,8.94-23.57h4.53L174.47,354l8.83-23.69Z" transform="translate(-56.48 -46.25)"/><path class="cls-1" d="M197.43,358.26a14.18,14.18,0,0,1-5.5-5.39,16.26,16.26,0,0,1,0-15.59,13.9,13.9,0,0,1,5.5-5.36,17.22,17.22,0,0,1,15.84,0,14,14,0,0,1,5.47,5.36,16.26,16.26,0,0,1,0,15.59,14.3,14.3,0,0,1-5.47,5.39,17.06,17.06,0,0,1-15.84,0Zm13-4.05a9.34,9.34,0,0,0,3.55-3.69,12.14,12.14,0,0,0,0-10.89,9,9,0,0,0-3.55-3.66,10.77,10.77,0,0,0-10.22,0,9.21,9.21,0,0,0-3.58,3.66,12,12,0,0,0,0,10.89,9.55,9.55,0,0,0,3.58,3.69,10.62,10.62,0,0,0,10.22,0Z" transform="translate(-56.48 -46.25)"/><path class="cls-1" d="M274.05,333.23q3.27,3.24,3.27,9.61v17H272V343.45c0-2.86-.67-5-2-6.48a7.28,7.28,0,0,0-5.67-2.18,8.47,8.47,0,0,0-6.48,2.55q-2.4,2.54-2.4,7.29v15.25h-5.36V343.45c0-2.86-.67-5-2-6.48a7.28,7.28,0,0,0-5.67-2.18,8.47,8.47,0,0,0-6.48,2.55q-2.4,2.54-2.4,7.29v15.25h-5.36V330.27h5.14v4.41a10.36,10.36,0,0,1,4.24-3.49,14.22,14.22,0,0,1,6-1.2,13.08,13.08,0,0,1,6.14,1.4,9.73,9.73,0,0,1,4.14,4.07,11.39,11.39,0,0,1,4.66-4A15.22,15.22,0,0,1,265.2,330,12,12,0,0,1,274.05,333.23Z" transform="translate(-56.48 -46.25)"/><path class="cls-1" d="M287.29,323.56a3.27,3.27,0,0,1-1-2.45,3.39,3.39,0,0,1,1-2.49,3.51,3.51,0,0,1,2.6-1,3.64,3.64,0,0,1,2.6,1,3.26,3.26,0,0,1,1,2.43,3.69,3.69,0,0,1-6.23,2.57Zm-.08,6.71h5.36v29.61h-5.36Z" transform="translate(-56.48 -46.25)"/><path class="cls-1" d="M312.07,331.33a15,15,0,0,1,6.64-1.34v5.19c-.29,0-.7-.05-1.22-.05a9,9,0,0,0-6.85,2.6c-1.66,1.73-2.48,4.2-2.48,7.4v14.75h-5.37V330.27h5.14v5A9.13,9.13,0,0,1,312.07,331.33Z" transform="translate(-56.48 -46.25)"/><path class="cls-1" d="M367.65,359.88l-8.43-12c-1.05.07-1.87.11-2.46.11h-9.67v11.9h-5.58V320.77h15.25q7.59,0,11.95,3.63a12.31,12.31,0,0,1,4.36,10,13.06,13.06,0,0,1-2.23,7.71,12.63,12.63,0,0,1-6.37,4.64l9.27,13.13Zm-3-18.94a8,8,0,0,0,2.79-6.54,7.9,7.9,0,0,0-2.79-6.51c-1.86-1.5-4.56-2.26-8.1-2.26h-9.5v17.6h9.5Q361.9,343.23,364.69,340.94Z" transform="translate(-56.48 -46.25)"/><path class="cls-1" d="M401.26,333q3.27,3,3.26,9v17.88h-5.08V356a8.39,8.39,0,0,1-3.83,3.15,14.5,14.5,0,0,1-5.89,1.09,12.32,12.32,0,0,1-8-2.4,7.7,7.7,0,0,1-3-6.31,7.79,7.79,0,0,1,2.85-6.29q2.85-2.37,9.05-2.37h8.49v-1.06a6.85,6.85,0,0,0-2-5.31q-2-1.85-5.92-1.84a15.84,15.84,0,0,0-5.14.86,13.3,13.3,0,0,0-4.25,2.32l-2.23-4a16.2,16.2,0,0,1,5.47-2.82,23,23,0,0,1,6.76-1Q398,330,401.26,333Zm-5.34,21.7a7.84,7.84,0,0,0,3.24-3.88v-4.14h-8.27q-6.81,0-6.81,4.58a4.12,4.12,0,0,0,1.73,3.52,7.87,7.87,0,0,0,4.8,1.29A10,10,0,0,0,395.92,354.71Z" transform="translate(-56.48 -46.25)"/><path class="cls-1" d="M442.57,318.42v41.46h-5.14v-4.69a11.68,11.68,0,0,1-4.53,3.74,13.93,13.93,0,0,1-6,1.28,15.52,15.52,0,0,1-7.71-1.9,13.53,13.53,0,0,1-5.33-5.33,15.85,15.85,0,0,1-1.93-7.91,15.64,15.64,0,0,1,1.93-7.87,13.61,13.61,0,0,1,5.33-5.31,15.52,15.52,0,0,1,7.71-1.9,14.23,14.23,0,0,1,5.87,1.2,11.45,11.45,0,0,1,4.47,3.55V318.42ZM432.4,354.21a9.28,9.28,0,0,0,3.58-3.69,12.22,12.22,0,0,0,0-10.89A9,9,0,0,0,432.4,336a10.71,10.71,0,0,0-10.19,0,9.21,9.21,0,0,0-3.58,3.66,12,12,0,0,0,0,10.89,9.55,9.55,0,0,0,3.58,3.69,10.56,10.56,0,0,0,10.19,0Z" transform="translate(-56.48 -46.25)"/><path class="cls-1" d="M474.69,355.46v4.42h-24.8v-3.47l17.48-21.73H450.22v-4.41h24v3.52l-17.49,21.67Z" transform="translate(-56.48 -46.25)"/><path class="cls-1" d="M507.49,330.27l-14.36,32.57q-1.9,4.53-4.44,6.37a10.16,10.16,0,0,1-6.12,1.84,12.84,12.84,0,0,1-4.22-.7,8.56,8.56,0,0,1-3.38-2l2.29-4a7.49,7.49,0,0,0,5.31,2.18,5.13,5.13,0,0,0,3.27-1,8.88,8.88,0,0,0,2.37-3.55l1-2.07-13.07-29.55h5.59L492,354l10.22-23.69Z" transform="translate(-56.48 -46.25)"/><path class="cls-1" d="M558.41,333.23q3.27,3.24,3.27,9.61v17h-5.37V343.45c0-2.86-.66-5-2-6.48a7.28,7.28,0,0,0-5.67-2.18,8.47,8.47,0,0,0-6.48,2.55q-2.4,2.54-2.4,7.29v15.25h-5.37V343.45c0-2.86-.66-5-2-6.48a7.28,7.28,0,0,0-5.67-2.18,8.47,8.47,0,0,0-6.48,2.55q-2.4,2.54-2.4,7.29v15.25h-5.37V330.27h5.14v4.41a10.45,10.45,0,0,1,4.25-3.49,14.22,14.22,0,0,1,6-1.2,13.11,13.11,0,0,1,6.14,1.4,9.73,9.73,0,0,1,4.14,4.07,11.33,11.33,0,0,1,4.66-4,15.18,15.18,0,0,1,6.73-1.45A12,12,0,0,1,558.41,333.23Z" transform="translate(-56.48 -46.25)"/><path class="cls-1" d="M571.65,323.56a3.28,3.28,0,0,1-1-2.45,3.4,3.4,0,0,1,1-2.49,3.51,3.51,0,0,1,2.6-1,3.62,3.62,0,0,1,2.59,1,3.24,3.24,0,0,1,1,2.43,3.54,3.54,0,0,1-3.63,3.58A3.54,3.54,0,0,1,571.65,323.56Zm-.09,6.71h5.37v29.61h-5.37Z" transform="translate(-56.48 -46.25)"/><path class="cls-1" d="M611.93,333.26q3.32,3.27,3.32,9.58v17h-5.36V343.45c0-2.86-.69-5-2.07-6.48a7.78,7.78,0,0,0-5.92-2.18,9.19,9.19,0,0,0-6.87,2.55q-2.52,2.54-2.52,7.29v15.25h-5.36V330.27h5.14v4.47a10.38,10.38,0,0,1,4.39-3.52A15.27,15.27,0,0,1,603,330,12.25,12.25,0,0,1,611.93,333.26Zm-7.29-14.56h6.81L602.07,326h-5Z" transform="translate(-56.48 -46.25)"/><path class="cls-1" d="M626.7,359.24a15.66,15.66,0,0,1-5.25-2.49l2.24-4.25a16,16,0,0,0,4.75,2.24,19.47,19.47,0,0,0,5.64.84q7,0,7-4a2.61,2.61,0,0,0-1-2.12,6.07,6.07,0,0,0-2.38-1.14q-1.42-.37-4-.81a41.4,41.4,0,0,1-5.84-1.29,9,9,0,0,1-3.88-2.46,6.83,6.83,0,0,1-1.62-4.86,7.6,7.6,0,0,1,3.35-6.45q3.36-2.43,9-2.43a24.48,24.48,0,0,1,5.92.73,15.88,15.88,0,0,1,4.86,1.95l-2.29,4.25a15.36,15.36,0,0,0-8.55-2.35,9.81,9.81,0,0,0-5.19,1.12,3.35,3.35,0,0,0-1.79,3,2.8,2.8,0,0,0,1,2.29,6.28,6.28,0,0,0,2.48,1.23c1,.26,2.38.56,4.16.89a44.58,44.58,0,0,1,5.79,1.32,8.6,8.6,0,0,1,3.77,2.37,6.62,6.62,0,0,1,1.56,4.69,7.4,7.4,0,0,1-3.43,6.4c-2.3,1.58-5.41,2.37-9.36,2.37A25,25,0,0,1,626.7,359.24Z" transform="translate(-56.48 -46.25)"/><path class="cls-1" d="M664.69,346.08l-6.14,5.7v8.1h-5.37V318.42h5.37V345l16.14-14.75h6.48L668.72,342.5l13.68,17.38h-6.59Z" transform="translate(-56.48 -46.25)"/><path class="cls-1" d="M687.29,323.56a3.27,3.27,0,0,1-1-2.45,3.39,3.39,0,0,1,1-2.49,3.53,3.53,0,0,1,2.6-1,3.64,3.64,0,0,1,2.6,1,3.23,3.23,0,0,1,1,2.43,3.46,3.46,0,0,1-1,2.55,3.82,3.82,0,0,1-5.2,0Zm-.08,6.71h5.36v29.61h-5.36Z" transform="translate(-56.48 -46.25)"/><path class="cls-1" d="M186.56,431.16A19.44,19.44,0,0,1,179,424a21,21,0,0,1,0-20.84,19.44,19.44,0,0,1,7.59-7.21,24.33,24.33,0,0,1,20.06-.81,18.51,18.51,0,0,1,6.9,5.14l-5.81,5.37a12.48,12.48,0,0,0-9.83-4.58,13,13,0,0,0-6.48,1.59,11.38,11.38,0,0,0-4.45,4.44,14,14,0,0,0,0,13,11.38,11.38,0,0,0,4.45,4.44,13,13,0,0,0,6.48,1.59,12.43,12.43,0,0,0,9.83-4.63l5.81,5.36a18.18,18.18,0,0,1-6.93,5.2,23,23,0,0,1-9.22,1.78A22.49,22.49,0,0,1,186.56,431.16Z" transform="translate(-56.48 -46.25)"/><path class="cls-1" d="M229,431.13a19.4,19.4,0,0,1-7.65-7.24,20.76,20.76,0,0,1,0-20.72,19.4,19.4,0,0,1,7.65-7.24,24.25,24.25,0,0,1,21.93,0,20,20,0,0,1,0,35.2,24.25,24.25,0,0,1-21.93,0Zm17.24-6.68a11.4,11.4,0,0,0,4.38-4.44,14,14,0,0,0,0-13,11.4,11.4,0,0,0-4.38-4.44,13.12,13.12,0,0,0-12.52,0,11.4,11.4,0,0,0-4.38,4.44,13.92,13.92,0,0,0,0,13,11.4,11.4,0,0,0,4.38,4.44,13.12,13.12,0,0,0,12.52,0Z" transform="translate(-56.48 -46.25)"/><path class="cls-1" d="M306.37,394v39.1h-7.43l-19.5-23.74v23.74H270.5V394H278l19.44,23.74V394Z" transform="translate(-56.48 -46.25)"/><path class="cls-1" d="M321.82,432.5a21.07,21.07,0,0,1-7-3.27l3.07-6.82a20.76,20.76,0,0,0,6,3,22.32,22.32,0,0,0,6.93,1.12,11.12,11.12,0,0,0,5.7-1.14,3.47,3.47,0,0,0,1.84-3.05,2.91,2.91,0,0,0-1.09-2.32,8.27,8.27,0,0,0-2.79-1.48c-1.14-.37-2.67-.78-4.61-1.23a61.85,61.85,0,0,1-7.32-2.12,11.87,11.87,0,0,1-4.89-3.41,9.2,9.2,0,0,1-2-6.26,10.89,10.89,0,0,1,1.85-6.17,12.41,12.41,0,0,1,5.56-4.38,22.64,22.64,0,0,1,9.07-1.62,29.82,29.82,0,0,1,7.32.89,21.63,21.63,0,0,1,6.26,2.57l-2.79,6.87a21.82,21.82,0,0,0-10.84-3.07,10.18,10.18,0,0,0-5.62,1.23,3.75,3.75,0,0,0-1.81,3.24,3.17,3.17,0,0,0,2.09,3,33,33,0,0,0,6.4,1.92,63.59,63.59,0,0,1,7.32,2.13,12.11,12.11,0,0,1,4.89,3.35,9,9,0,0,1,2,6.2,10.68,10.68,0,0,1-1.88,6.12,12.51,12.51,0,0,1-5.61,4.38,22.91,22.91,0,0,1-9.11,1.62A32.21,32.21,0,0,1,321.82,432.5Z" transform="translate(-56.48 -46.25)"/><path class="cls-1" d="M360.2,429.12q-4.67-4.64-4.67-13.24V394h9.05v21.56q0,10.5,8.72,10.5a8.15,8.15,0,0,0,6.48-2.54c1.49-1.69,2.23-4.35,2.23-8V394H391v21.9q0,8.6-4.66,13.24t-13.05,4.63Q364.85,433.75,360.2,429.12Z" transform="translate(-56.48 -46.25)"/><path class="cls-1" d="M402.18,394h9.05v31.73h19.61v7.37H402.18Z" transform="translate(-56.48 -46.25)"/><path class="cls-1" d="M442.68,401.35H430.17V394h34.08v7.37H451.73v31.73h-9.05Z" transform="translate(-56.48 -46.25)"/><path class="cls-1" d="M471.4,394h9.05v39.1H471.4Z" transform="translate(-56.48 -46.25)"/><path class="cls-1" d="M527.88,394v39.1h-7.43L501,409.34v23.74H492V394h7.49l19.44,23.74V394Z" transform="translate(-56.48 -46.25)"/><path class="cls-1" d="M565.87,412.92h8.27v15.86a23.77,23.77,0,0,1-7.38,3.69,28.46,28.46,0,0,1-8.43,1.28,22.88,22.88,0,0,1-11-2.59,19.41,19.41,0,0,1-7.63-7.21,21,21,0,0,1,0-20.84,19.28,19.28,0,0,1,7.68-7.21,23.35,23.35,0,0,1,11.06-2.59,24.08,24.08,0,0,1,9.33,1.73,18.37,18.37,0,0,1,7,5l-5.81,5.36A13.43,13.43,0,0,0,558.94,401a13.86,13.86,0,0,0-6.65,1.56,11.22,11.22,0,0,0-4.52,4.41,13.89,13.89,0,0,0,0,13,11.48,11.48,0,0,0,4.49,4.44,13.37,13.37,0,0,0,6.57,1.59,14.64,14.64,0,0,0,7-1.67Z" transform="translate(-56.48 -46.25)"/><path class="cls-2" d="M308.06,186.5c-27.47-21-40.87-43.47-37.36-62.35.16-.85.36-1.69.58-2.53a110.48,110.48,0,0,0,54.31,133.13C311.7,243.43,305.08,218.38,308.06,186.5Z" transform="translate(-56.48 -46.25)"/><path class="cls-2" d="M408.31,226.74c-15.21,21.66-32.39,35.39-47.91,39.06A110.34,110.34,0,0,0,468,217.34c-9.69,6.83-24.21,10.52-42,10.52A147.86,147.86,0,0,1,408.31,226.74Z" transform="translate(-56.48 -46.25)"/><path class="cls-2" d="M329.56,176.71a204.14,204.14,0,0,0,29.67,16A193.14,193.14,0,0,0,398.36,205,191.76,191.76,0,0,0,415,168.57,195.4,195.4,0,0,0,423,136.51a197.71,197.71,0,0,0-29.54-15.79,195.41,195.41,0,0,0-39.06-12.43,194.08,194.08,0,0,0-16.83,36.8A198.21,198.21,0,0,0,329.56,176.71Z" transform="translate(-56.48 -46.25)"/><path class="cls-2" d="M344.66,86.72C360,64.87,377.29,51.09,392.94,47.55A110.51,110.51,0,0,0,282.82,97.41l.49-.41C295.88,87,317.48,83.39,344.66,86.72Z" transform="translate(-56.48 -46.25)"/><path class="cls-2" d="M411.85,67.24c-13-4.11-29.83,4.64-45.16,23.5a221.69,221.69,0,0,1,28.72,9,217,217,0,0,1,29.78,14.11C425.7,92,421.11,75.92,411.85,67.24Z" transform="translate(-56.48 -46.25)"/><path class="cls-2" d="M286.72,123.22c-.12.28-.27.65-.4,1,1.23,12,10.19,25.77,25.36,39.06a224.35,224.35,0,0,1,7.76-26.73,210.91,210.91,0,0,1,13.57-31C308.91,104.39,292.05,110.78,286.72,123.22Z" transform="translate(-56.48 -46.25)"/><path class="cls-2" d="M466.11,189.86c.09-.21.17-.43.25-.65-1.05-11.86-9.95-25.65-25.1-39a221.53,221.53,0,0,1-7.68,26.83,219,219,0,0,1-13.65,30.73C444.71,208.64,460.67,202.44,466.11,189.86Z" transform="translate(-56.48 -46.25)"/><path class="cls-2" d="M444.81,127.09c25.9,19.38,39.52,40.56,37.72,58A110.45,110.45,0,0,0,425.89,58.17C440.83,68.51,447.87,93.85,444.81,127.09Z" transform="translate(-56.48 -46.25)"/><path class="cls-2" d="M339.72,245.67l.92.35c13.15,4.47,29.63-4,45.37-23.24a221.72,221.72,0,0,1-28.83-9.28,222.45,222.45,0,0,1-29.63-14.19C327.12,219.77,331.52,236.6,339.72,245.67Z" transform="translate(-56.48 -46.25)"/><path class="cls-2" d="M425.57,175c-15.88,46.75-45.39,80.13-69.09,80.13a23.12,23.12,0,0,1-7.53-1.22,24.76,24.76,0,0,1-10.3-6.9c-8.86-9.62-13.38-26.91-12.78-48.7-2.12-1.25-4-2.52-5.85-3.75-.52-.36-1-.71-1.58-1.06-2.53,29,3.1,52.89,15.17,64.18.56.52,1.14,1,1.73,1.48a109.47,109.47,0,0,0,20,5.78c16.34-1.57,35.28-15.74,51.94-39.59,2.26-3.24,4.47-6.66,6.57-10.17,1.32-2.16,2.64-4.45,4-7A218.38,218.38,0,0,0,432,176.52,223.37,223.37,0,0,0,439.83,149c-2-1.71-4.12-3.42-6.32-5.1A202.66,202.66,0,0,1,425.57,175Z" transform="translate(-56.48 -46.25)"/><path class="cls-2" d="M358.56,194.22a202.76,202.76,0,0,1-30.39-16.4l-.45-.3.08-.54A199.82,199.82,0,0,1,336,144.55,195.78,195.78,0,0,1,352.69,108c-2-.39-4.06-.75-6.11-1.06a213.65,213.65,0,0,0-16.85,36.46A207.75,207.75,0,0,0,320,180.87a212.39,212.39,0,0,0,39.29,20.26,213.51,213.51,0,0,0,34.86,10.65c1.2-1.83,2.29-3.55,3.3-5.22A195.1,195.1,0,0,1,358.56,194.22Z" transform="translate(-56.48 -46.25)"/><path class="cls-2" d="M412.73,65.74l.19.06c17.07,5.79,25.61,30.86,22.31,65.46,26.43,19.94,39,42.28,32.79,58.36-.11.3-.23.61-.36.91-5.41,12.51-20.39,19.06-43.47,19.06-1.67,0-3.39-.05-5.14-.11-1.06,1.94-2.08,3.73-3.1,5.42,33,2.73,57.31-6.3,63.52-23.73.08-.2.13-.37.2-.56,5.8-17.58-8.1-41.5-36.25-62.45l-.38-.29,0-.47c3.29-34.77-4.47-60.74-20.77-69.46a25.69,25.69,0,0,0-4.44-1.9C400.58,50.4,378.44,62.71,358.51,89c2,.41,4.13.85,6.35,1.35C380.91,70.29,398.77,61.1,412.73,65.74Z" transform="translate(-56.48 -46.25)"/><path class="cls-3" d="M273.79,114.86a111.64,111.64,0,0,1,5.42-11.36,28.84,28.84,0,0,0-4.51,8A25.76,25.76,0,0,0,273.79,114.86Z" transform="translate(-56.48 -46.25)"/><path class="cls-2" d="M273.55,116A109.7,109.7,0,0,1,280,102.46c-.29.34-.54.69-.82,1a111.64,111.64,0,0,0-5.42,11.36C273.71,115.25,273.61,115.64,273.55,116Z" transform="translate(-56.48 -46.25)"/><path class="cls-2" d="M273.2,119.25l-.84,0,.84,0c0,.57,0,1.14,0,1.71.28,15.54,13.56,34.67,36.5,52.65.45-2.75,1-5.59,1.58-8.46-16.21-14-25.69-28.73-26.71-41.47A25.31,25.31,0,0,1,286.29,112c2.7-6.56,8.19-11.56,16.32-14.86,21.34-8.67,57-4.35,93.08,11.26a200.89,200.89,0,0,1,28.95,15.39c.23-2.66.4-5.37.5-8.08a214.12,214.12,0,0,0-30.34-14.45,219,219,0,0,0-29.59-9.17l-.22,0c-2.87-.66-5.52-1.22-8.09-1.71-4.24-.8-8.26-1.43-12-1.9-28.62-3.59-50.9.58-62.74,11.74a30.88,30.88,0,0,0-2.17,2.27A109.7,109.7,0,0,0,273.55,116,26.42,26.42,0,0,0,273.2,119.25Z" transform="translate(-56.48 -46.25)"/><path class="cls-4" d="M327.8,177l-.08.54.45.3a202.76,202.76,0,0,0,30.39,16.4,195.1,195.1,0,0,0,38.88,12.34l.62-1,.3-.52a193.14,193.14,0,0,1-39.13-12.36,204.14,204.14,0,0,1-29.67-16,198.21,198.21,0,0,1,8.05-31.62,194.08,194.08,0,0,1,16.83-36.8l-.59-.12-1.16-.22A195.78,195.78,0,0,0,336,144.55,199.82,199.82,0,0,0,327.8,177Z" transform="translate(-56.48 -46.25)"/><path class="cls-4" d="M444.81,127.09c3.06-33.24-4-58.58-18.92-68.92a109.7,109.7,0,0,0-32.95-10.62c-15.65,3.54-33,17.32-48.28,39.17C317.48,83.39,295.88,87,283.31,97l-.49.41q-1.9,3-3.61,6.09c.28-.35.53-.7.82-1a30.88,30.88,0,0,1,2.17-2.27C294,89,316.32,84.86,344.94,88.45c3.7.47,7.72,1.1,12,1.9,2.57.49,5.22,1.05,8.09,1.71l.22,0a219,219,0,0,1,29.59,9.17,214.12,214.12,0,0,1,30.34,14.45l0-.51c0-.47,0-.93,0-1.41A217,217,0,0,0,395.41,99.7a221.69,221.69,0,0,0-28.72-9c-.37-.08-.73-.19-1.1-.27l-.22,0-.51-.12c-2.22-.5-4.31-.94-6.35-1.35C378.44,62.71,400.58,50.4,417.87,56a25.69,25.69,0,0,1,4.44,1.9c16.3,8.72,24.06,34.69,20.77,69.46l0,.47.38.29c28.15,21,42.05,44.87,36.25,62.45-.07.19-.12.36-.2.56C473.26,208.6,449,217.63,416,214.9c1-1.69,2-3.48,3.1-5.42l.27-.49c.21-.38.4-.79.61-1.18a219,219,0,0,0,13.65-30.73,221.53,221.53,0,0,0,7.68-26.83c-.35-.31-.68-.62-1-.93l-.39-.32A223.37,223.37,0,0,1,432,176.52a218.38,218.38,0,0,1-14.16,31.66c-1.39,2.57-2.71,4.86-4,7-2.1,3.51-4.31,6.93-6.57,10.17-16.66,23.85-35.6,38-51.94,39.59,1.69.32,3.39.6,5.11.84,15.52-3.67,32.7-17.4,47.91-39.06A147.86,147.86,0,0,0,426,227.86c17.8,0,32.32-3.69,42-10.52a109.55,109.55,0,0,0,14.5-32.22C484.33,167.65,470.71,146.47,444.81,127.09Z" transform="translate(-56.48 -46.25)"/><path class="cls-4" d="M333.61,257.7c-12.07-11.29-17.7-35.22-15.17-64.18.53.35,1.06.7,1.58,1.06,1.84,1.23,3.73,2.5,5.85,3.75l.37.23.15.09,1.16.66a222.45,222.45,0,0,0,29.63,14.19A221.72,221.72,0,0,0,386,222.78c.2-.24.4-.47.59-.72l.26-.3.33-.42c2-2.49,4-5.19,5.93-8.05l.52-.75.19-.28c.11-.16.2-.31.31-.48a213.51,213.51,0,0,1-34.86-10.65A212.39,212.39,0,0,1,320,180.87a207.75,207.75,0,0,1,9.74-37.52,213.65,213.65,0,0,1,16.85-36.46l-.65-.1-.25,0-.9-.12c-3.71-.5-7.25-.85-10.52-1h-.16l-.11-.06,0,.06-.95,0a210.91,210.91,0,0,0-13.57,31,224.35,224.35,0,0,0-7.76,26.73c-.1.45-.22.91-.32,1.36,0,.17-.07.35-.1.52-.6,2.87-1.13,5.71-1.58,8.46-22.94-18-36.22-37.11-36.5-52.65,0-.57,0-1.14,0-1.71l-.84,0,.84,0a26.42,26.42,0,0,1,.35-3.22c.06-.39.16-.78.24-1.17q-1.37,3.33-2.51,6.76c-.22.84-.42,1.68-.58,2.53-3.51,18.88,9.89,41.36,37.36,62.35-3,31.88,3.64,56.93,17.53,68.25q4.74,2.44,9.75,4.43C334.75,258.71,334.17,258.22,333.61,257.7Z" transform="translate(-56.48 -46.25)"/><path class="cls-1" d="M395.69,108.42C359.62,92.81,324,88.49,302.61,97.16c-8.13,3.3-13.62,8.3-16.32,14.86a25.31,25.31,0,0,0-1.74,11.66c1,12.74,10.5,27.46,26.71,41.47,0-.17.06-.35.1-.52.1-.45.22-.91.32-1.36-15.17-13.29-24.13-27.09-25.36-39.06.13-.34.28-.71.4-1,5.33-12.44,22.19-18.83,46.29-17.66l.95,0,0-.06.11.06h.16c3.27.17,6.81.52,10.52,1l.9.12.25,0,.65.1c2.05.31,4.09.67,6.11,1.06l1.16.22.59.12a195.41,195.41,0,0,1,39.06,12.43A197.71,197.71,0,0,1,423,136.51,195.4,195.4,0,0,1,415,168.57,191.76,191.76,0,0,1,398.36,205l-.3.52-.62,1c-1,1.67-2.1,3.39-3.3,5.22-.11.17-.2.32-.31.48l-.19.28-.52.75c-1.95,2.86-3.94,5.56-5.93,8.05l-.33.42-.26.3c-.19.25-.39.48-.59.72C370.27,242,353.79,250.49,340.64,246l-.92-.35c-8.2-9.07-12.6-25.9-12.17-46.36l-1.16-.66-.15-.09-.37-.23c-.6,21.79,3.92,39.08,12.78,48.7a24.76,24.76,0,0,0,10.3,6.9,23.12,23.12,0,0,0,7.53,1.22c23.7,0,53.21-33.38,69.09-80.13a202.66,202.66,0,0,0,7.94-31.12c2.2,1.68,4.31,3.39,6.32,5.1l.39.32c.36.31.69.62,1,.93,15.15,13.31,24.05,27.1,25.1,39-.08.22-.16.44-.25.65-5.44,12.58-21.4,18.78-46.18,17.95-.21.39-.4.8-.61,1.18l-.27.49c1.75.06,3.47.11,5.14.11,23.08,0,38.06-6.55,43.47-19.06.13-.3.25-.61.36-.91,6.2-16.08-6.36-38.42-32.79-58.36,3.3-34.6-5.24-59.67-22.31-65.46l-.19-.06c-14-4.64-31.82,4.55-47.87,24.56l.51.12.22,0c.37.08.73.19,1.1.27,15.33-18.86,32.14-27.61,45.16-23.5,9.26,8.68,13.85,24.77,13.34,46.57,0,.48,0,.94,0,1.41l0,.51c-.1,2.71-.27,5.42-.5,8.08A200.89,200.89,0,0,0,395.69,108.42Z" transform="translate(-56.48 -46.25)"/></svg>